<svg width="186" height="60" viewBox="0 0 186 60" fill="none" xmlns="http://www.w3.org/2000/svg">
<g clip-path="url(#clip0)" filter="url(#filter0_d)">
<path d="M11.0659 23.6815V36.3185C11.0661 37.424 11.3572 38.5101 11.91 39.4675C12.4628 40.4249 13.2578 41.22 14.2151 41.7729L25.1581 48.09C26.1155 48.6429 27.2017 48.934 28.3074 48.934C29.413 48.934 30.4992 48.6429 31.4567 48.09L42.3996 41.7729C43.358 41.2207 44.1542 40.4259 44.708 39.4685C45.2618 38.511 45.5538 37.4246 45.5546 36.3185V23.6815C45.5546 22.5761 45.2635 21.4902 44.7107 20.533C44.1579 19.5758 43.3627 18.781 42.4053 18.2285L31.4624 11.91C30.5049 11.3571 29.4187 11.066 28.3131 11.066C27.2074 11.066 26.1212 11.3571 25.1638 11.91L14.2208 18.2285C13.2623 18.7803 12.4661 19.5747 11.9122 20.532C11.3584 21.4893 11.0664 22.5756 11.0659 23.6815Z" fill="#005395" stroke="white" stroke-width="2.32883" stroke-miterlimit="10"/>
<path d="M22.3186 34.7268H23.3021V32.1176H23.9714V35.2853H19.9922V32.1176H20.6644V34.7268H21.6478V32.1176H22.3243L22.3186 34.7268Z" fill="white"/>
<path d="M26.7086 35.2853L26.4798 34.5307H25.3244L25.0899 35.2853H24.3793L25.4964 32.1047H26.3178L27.4391 35.2853H26.7086ZM26.3192 33.9679C26.1075 33.2857 25.9867 32.8992 25.9611 32.8096C25.9355 32.7201 25.9142 32.649 25.9028 32.5965C25.8554 32.7859 25.719 33.2431 25.4935 33.9679H26.3192Z" fill="white"/>
<path d="M30.0057 34.7083H30.641V36.2077H29.9929V35.2853H29.6249L28.8887 34.0873L28.1525 35.2853H27.432L28.4837 33.6524L27.5059 32.1176H28.2463L28.9285 33.2545L29.5979 32.1176H30.3212L29.3264 33.6894L30.0057 34.7083Z" fill="white"/>
<path d="M33.3156 33.1067C33.3247 33.2525 33.3008 33.3985 33.2457 33.5338C33.1906 33.6692 33.1057 33.7903 32.9973 33.8883C32.7359 34.0838 32.4134 34.1795 32.0877 34.1583H31.8035V35.2853H31.1327V32.1175H32.1446C32.4564 32.0961 32.766 32.1841 33.02 32.3662C33.1226 32.4588 33.2026 32.5737 33.2538 32.7021C33.3051 32.8305 33.3262 32.9689 33.3156 33.1067ZM31.7992 33.6112H32.0209C32.1846 33.623 32.3476 33.58 32.4842 33.489C32.5362 33.4459 32.5772 33.3911 32.6039 33.3291C32.6306 33.2671 32.6422 33.1996 32.6377 33.1322C32.6429 33.0684 32.6341 33.0042 32.612 32.9441C32.59 32.884 32.5551 32.8294 32.5098 32.7841C32.3925 32.6996 32.2488 32.6598 32.1048 32.6718H31.7992V33.6112Z" fill="white"/>
<path d="M33.9139 32.1176H34.5179V33.6481L34.5093 34.0574L34.488 34.5222H34.5008L35.9632 32.1176H36.7676V35.2853H36.1749V33.7647C36.1749 33.5615 36.1877 33.2587 36.2133 32.8594H36.1963L34.7282 35.2853H33.9196L33.9139 32.1176Z" fill="white"/>
<path d="M19.573 38.4502H19.8316C20.169 38.4289 20.5043 38.5165 20.7881 38.7003C20.8987 38.7817 20.9874 38.8892 21.0464 39.0132C21.1054 39.1371 21.1329 39.2738 21.1263 39.4109C21.1263 40.0741 20.69 40.4057 19.8174 40.4057H18.8951V37.2337H20.8961V37.7894H19.5673L19.573 38.4502ZM19.573 39.8515H19.7975C19.9709 39.864 20.1442 39.826 20.2963 39.7421C20.3488 39.705 20.3908 39.6551 20.4184 39.5971C20.4461 39.5391 20.4583 39.475 20.4541 39.4109C20.4588 39.3489 20.4463 39.2867 20.418 39.2313C20.3896 39.1759 20.3466 39.1294 20.2935 39.0968C20.1213 39.0188 19.9321 38.9855 19.7435 39.0002H19.573V39.8515Z" fill="white"/>
<path d="M23.5565 40.4015H21.7317V37.2337H23.5565V37.7851H22.4039V38.4801H23.4755V39.0301H22.4039V39.8472H23.5565V40.4015Z" fill="white"/>
<path d="M26.7768 40.4015H26.0108L25.2732 39.2034L24.537 40.4015H23.8179L24.8682 38.7686L23.8847 37.2337H24.6266L25.3087 38.3706L25.9781 37.2337H26.7015L25.7067 38.8041L26.7768 40.4015Z" fill="white"/>
<path d="M29.1147 40.4014L28.8844 39.6468H27.7304L27.5059 40.4014H26.7825L27.901 37.2209H28.7224L29.8437 40.4014H29.1147ZM28.7253 39.084C28.5121 38.4019 28.3922 38.0158 28.3657 37.9258C28.3401 37.8362 28.3202 37.7652 28.3089 37.7126C28.2605 37.9021 28.1241 38.3592 27.8996 39.084H28.7253Z" fill="white"/>
<path d="M31.4581 40.4015H30.7873V37.7936H29.9346V37.2337H32.325V37.7936H31.4652L31.4581 40.4015Z" fill="white"/>
<path d="M34.7453 40.4014L34.5151 39.6468H33.3611L33.1308 40.4014H32.4075L33.5245 37.2209H34.3459L35.4687 40.4014H34.7453ZM34.3545 39.084C34.1422 38.4019 34.0229 38.0158 33.9963 37.9258C33.9693 37.8362 33.9509 37.7652 33.9395 37.7126C33.8912 37.9021 33.7543 38.3592 33.5288 39.084H34.3545Z" fill="white"/>
<path d="M38.0552 38.2228C38.0658 38.3697 38.0428 38.5171 37.9879 38.6538C37.933 38.7905 37.8476 38.9129 37.7382 39.0115C37.477 39.2072 37.1544 39.303 36.8287 39.2816H36.5445V40.4085H35.8723V37.2337H36.8855C37.1978 37.2125 37.5077 37.3004 37.7624 37.4824C37.8642 37.5755 37.9435 37.6905 37.9943 37.8188C38.045 37.9471 38.0658 38.0853 38.0552 38.2228ZM36.5388 38.7273H36.7591C36.9228 38.7394 37.0859 38.6964 37.2224 38.6051C37.2746 38.5622 37.3159 38.5075 37.3429 38.4454C37.3698 38.3834 37.3816 38.3159 37.3773 38.2484C37.3824 38.1844 37.3734 38.1201 37.3511 38.06C37.3288 37.9999 37.2935 37.9453 37.2479 37.9002C37.1312 37.8157 36.988 37.7759 36.8443 37.7879H36.5388V38.7273Z" fill="white"/>
<path d="M36.2275 23.1358L27.756 18.291C27.4286 18.1125 27.0474 18.059 26.6835 18.1406C26.3195 18.2221 25.9976 18.4332 25.7777 18.7344L24.1363 21.0808C24.028 21.2357 23.9531 21.4114 23.9163 21.5968C23.8795 21.7821 23.8816 21.9731 23.9224 22.1577C23.9633 22.3422 24.0421 22.5162 24.1538 22.6687C24.2655 22.8211 24.4076 22.9488 24.5712 23.0434L26.3576 24.0752L26.035 24.5015C25.8571 24.7362 25.7621 25.0233 25.7649 25.3178C25.7678 25.6123 25.8682 25.8975 26.0506 26.1287L25.5759 26.8393H23.2651V25.9085C23.2651 25.8675 23.257 25.827 23.2413 25.7892C23.2255 25.7515 23.2025 25.7172 23.1734 25.6884C23.1443 25.6596 23.1098 25.6368 23.0719 25.6214C23.034 25.606 22.9934 25.5983 22.9525 25.5987H21.7033C21.6624 25.5983 21.6218 25.606 21.5838 25.6214C21.5459 25.6368 21.5114 25.6596 21.4824 25.6884C21.4533 25.7172 21.4302 25.7515 21.4145 25.7892C21.3987 25.827 21.3906 25.8675 21.3906 25.9085V29.035C21.3906 29.1179 21.4236 29.1975 21.4822 29.2561C21.5408 29.3147 21.6204 29.3477 21.7033 29.3477H22.9582C22.9993 29.3479 23.04 29.3399 23.078 29.3243C23.1161 29.3086 23.1506 29.2856 23.1797 29.2565C23.2087 29.2275 23.2318 29.1929 23.2474 29.1549C23.263 29.1169 23.271 29.0761 23.2708 29.035V28.7224H25.5816C25.8909 28.7236 26.1957 28.6481 26.4685 28.5025C26.7414 28.3569 26.9738 28.1458 27.1449 27.8881L27.6565 27.1193C27.9463 27.1926 28.2521 27.1685 28.5269 27.0509C28.8016 26.9333 29.0301 26.7286 29.1772 26.4684L29.5211 25.8999L32.1787 27.4348C32.226 27.4627 32.28 27.4774 32.335 27.4774C32.3659 27.4777 32.3966 27.4729 32.4259 27.4632C32.4667 27.4511 32.5045 27.4307 32.537 27.4033C32.5695 27.3759 32.5961 27.3421 32.615 27.304L32.8466 26.8407C32.8836 26.8407 32.9205 26.8521 32.9589 26.8521C33.5382 26.8487 34.0926 26.6159 34.5007 26.2047C34.9088 25.7934 35.1372 25.2372 35.1361 24.6578C35.1337 24.5201 35.1175 24.383 35.0878 24.2486L36.2133 23.6801C36.2637 23.6544 36.3062 23.6157 36.3365 23.5679C36.3667 23.5201 36.3836 23.4651 36.3853 23.4086C36.3857 23.3532 36.3712 23.2987 36.3435 23.2508C36.3158 23.2028 36.2757 23.1631 36.2275 23.1358ZM22.6412 28.7224H22.0159V26.2211H22.6412V28.7224ZM26.6205 27.5428C26.5066 27.7139 26.3521 27.8542 26.1709 27.9511C25.9896 28.0481 25.7872 28.0987 25.5816 28.0985H23.2651V27.4746H25.5759C25.6792 27.4742 25.7808 27.448 25.8714 27.3984C25.962 27.3487 26.0388 27.2772 26.0947 27.1904L26.5281 26.5409L27.0639 26.8635L26.6205 27.5428ZM28.6371 26.1486C28.5244 26.3261 28.3479 26.4535 28.144 26.5045C27.9401 26.5556 27.7244 26.5264 27.5414 26.4229L26.7498 25.9483C26.662 25.896 26.5862 25.8258 26.5273 25.7422C26.4684 25.6587 26.4278 25.5637 26.4081 25.4634C26.3884 25.3631 26.39 25.2598 26.4129 25.1602C26.4358 25.0605 26.4794 24.9669 26.5409 24.8852L26.909 24.3935L28.9754 25.5859L28.6371 26.1486ZM32.1957 26.7256L24.8853 22.5076C24.7965 22.4567 24.7194 22.3878 24.6587 22.3054C24.5981 22.2229 24.5553 22.1288 24.5331 22.0289C24.5109 21.929 24.5098 21.8255 24.5298 21.7252C24.5498 21.6248 24.5905 21.5298 24.6493 21.446L25.4338 20.3261L33.1649 24.7857L32.1957 26.7256ZM33.155 26.2041L33.8087 24.8952L34.5023 24.5484C34.5023 24.5868 34.5122 24.6252 34.5122 24.6635C34.51 25.0411 34.3712 25.4051 34.1214 25.6883C33.8717 25.9714 33.5279 26.1546 33.1536 26.2041H33.155ZM33.5813 24.3068L25.792 19.8117L26.2894 19.1011C26.4153 18.9216 26.6036 18.7955 26.8175 18.7474C27.0314 18.6993 27.2556 18.7327 27.4462 18.841L35.4118 23.3888L33.5813 24.3068Z" fill="white"/>
<path d="M31.6997 25.5986C31.8724 25.5986 32.0124 25.4587 32.0124 25.286C32.0124 25.1133 31.8724 24.9733 31.6997 24.9733C31.5271 24.9733 31.3871 25.1133 31.3871 25.286C31.3871 25.4587 31.5271 25.5986 31.6997 25.5986Z" fill="white"/>
</g>
<path d="M60.2432 23.2031V34.6201H64.6465V23.2031H66.3252V34.6201H70.7021V23.2031H72.3896V36H58.5469V23.2031H60.2432ZM81.0469 36C80.9531 35.8125 80.877 35.4785 80.8184 34.998C80.0625 35.7832 79.1602 36.1758 78.1113 36.1758C77.1738 36.1758 76.4033 35.9121 75.7998 35.3848C75.2021 34.8516 74.9033 34.1777 74.9033 33.3633C74.9033 32.373 75.2783 31.6055 76.0283 31.0605C76.7842 30.5098 77.8447 30.2344 79.21 30.2344H80.792V29.4873C80.792 28.9189 80.6221 28.4678 80.2822 28.1338C79.9424 27.7939 79.4414 27.624 78.7793 27.624C78.1992 27.624 77.7129 27.7705 77.3203 28.0635C76.9277 28.3564 76.7314 28.7109 76.7314 29.127H75.0967C75.0967 28.6523 75.2637 28.1953 75.5977 27.7559C75.9375 27.3105 76.3945 26.959 76.9688 26.7012C77.5488 26.4434 78.1846 26.3145 78.876 26.3145C79.9717 26.3145 80.8301 26.5898 81.4512 27.1406C82.0723 27.6855 82.3945 28.4385 82.418 29.3994V33.7764C82.418 34.6494 82.5293 35.3438 82.752 35.8594V36H81.0469ZM78.3486 34.7607C78.8584 34.7607 79.3418 34.6289 79.7988 34.3652C80.2559 34.1016 80.5869 33.7588 80.792 33.3369V31.3857H79.5176C77.5254 31.3857 76.5293 31.9688 76.5293 33.1348C76.5293 33.6445 76.6992 34.043 77.0391 34.3301C77.3789 34.6172 77.8154 34.7607 78.3486 34.7607ZM88.1572 29.9619L90.2666 26.4902H92.165L89.0537 31.1924L92.2617 36H90.3809L88.1836 32.4404L85.9863 36H84.0967L87.3047 31.1924L84.1934 26.4902H86.0742L88.1572 29.9619ZM101.93 31.3506C101.93 32.7979 101.599 33.9639 100.937 34.8486C100.274 35.7334 99.3779 36.1758 98.2471 36.1758C97.0928 36.1758 96.1846 35.8096 95.5225 35.0771V39.6562H93.8965V26.4902H95.3818L95.4609 27.5449C96.123 26.7246 97.043 26.3145 98.2207 26.3145C99.3633 26.3145 100.266 26.7451 100.928 27.6064C101.596 28.4678 101.93 29.666 101.93 31.2012V31.3506ZM100.304 31.166C100.304 30.0938 100.075 29.2471 99.6182 28.626C99.1611 28.0049 98.5342 27.6943 97.7373 27.6943C96.7529 27.6943 96.0146 28.1309 95.5225 29.0039V33.5479C96.0088 34.415 96.7529 34.8486 97.7549 34.8486C98.5342 34.8486 99.1523 34.541 99.6094 33.9258C100.072 33.3047 100.304 32.3848 100.304 31.166ZM110.156 26.4902H111.782V36H110.156V29.0654L105.771 36H104.145V26.4902H105.771V33.4336L110.156 26.4902ZM126.917 24.5918H120.747V28.4238H123.929C125.265 28.4414 126.308 28.7842 127.058 29.4521C127.808 30.1201 128.183 31.0283 128.183 32.1768C128.183 33.3311 127.805 34.251 127.049 34.9365C126.293 35.6221 125.262 35.9766 123.955 36H119.051V23.2031H126.917V24.5918ZM120.747 29.8125V34.6201H123.832C124.67 34.6201 125.32 34.3975 125.783 33.9521C126.252 33.5068 126.486 32.9092 126.486 32.1592C126.486 31.4385 126.261 30.8701 125.81 30.4541C125.364 30.0381 124.729 29.8242 123.902 29.8125H120.747ZM134.159 36.1758C132.87 36.1758 131.821 35.7539 131.013 34.9102C130.204 34.0605 129.8 32.9268 129.8 31.5088V31.21C129.8 30.2666 129.979 29.4258 130.336 28.6875C130.699 27.9434 131.203 27.3633 131.848 26.9473C132.498 26.5254 133.201 26.3145 133.957 26.3145C135.193 26.3145 136.154 26.7217 136.84 27.5361C137.525 28.3506 137.868 29.5166 137.868 31.0342V31.7109H131.426C131.449 32.6484 131.722 33.4072 132.243 33.9873C132.771 34.5615 133.438 34.8486 134.247 34.8486C134.821 34.8486 135.308 34.7314 135.706 34.4971C136.104 34.2627 136.453 33.9521 136.752 33.5654L137.745 34.3389C136.948 35.5635 135.753 36.1758 134.159 36.1758ZM133.957 27.6504C133.301 27.6504 132.75 27.8906 132.305 28.3711C131.859 28.8457 131.584 29.5137 131.479 30.375H136.242V30.252C136.195 29.4258 135.973 28.7871 135.574 28.3359C135.176 27.8789 134.637 27.6504 133.957 27.6504ZM142.948 29.9619L145.058 26.4902H146.956L143.845 31.1924L147.053 36H145.172L142.975 32.4404L140.777 36H138.888L142.096 31.1924L138.984 26.4902H140.865L142.948 29.9619ZM154.559 36C154.465 35.8125 154.389 35.4785 154.33 34.998C153.574 35.7832 152.672 36.1758 151.623 36.1758C150.686 36.1758 149.915 35.9121 149.312 35.3848C148.714 34.8516 148.415 34.1777 148.415 33.3633C148.415 32.373 148.79 31.6055 149.54 31.0605C150.296 30.5098 151.356 30.2344 152.722 30.2344H154.304V29.4873C154.304 28.9189 154.134 28.4678 153.794 28.1338C153.454 27.7939 152.953 27.624 152.291 27.624C151.711 27.624 151.225 27.7705 150.832 28.0635C150.439 28.3564 150.243 28.7109 150.243 29.127H148.608C148.608 28.6523 148.775 28.1953 149.109 27.7559C149.449 27.3105 149.906 26.959 150.48 26.7012C151.061 26.4434 151.696 26.3145 152.388 26.3145C153.483 26.3145 154.342 26.5898 154.963 27.1406C155.584 27.6855 155.906 28.4385 155.93 29.3994V33.7764C155.93 34.6494 156.041 35.3438 156.264 35.8594V36H154.559ZM151.86 34.7607C152.37 34.7607 152.854 34.6289 153.311 34.3652C153.768 34.1016 154.099 33.7588 154.304 33.3369V31.3857H153.029C151.037 31.3857 150.041 31.9688 150.041 33.1348C150.041 33.6445 150.211 34.043 150.551 34.3301C150.891 34.6172 151.327 34.7607 151.86 34.7607ZM165.404 27.8086H162.214V36H160.588V27.8086H157.459V26.4902H165.404V27.8086ZM172.717 36C172.623 35.8125 172.547 35.4785 172.488 34.998C171.732 35.7832 170.83 36.1758 169.781 36.1758C168.844 36.1758 168.073 35.9121 167.47 35.3848C166.872 34.8516 166.573 34.1777 166.573 33.3633C166.573 32.373 166.948 31.6055 167.698 31.0605C168.454 30.5098 169.515 30.2344 170.88 30.2344H172.462V29.4873C172.462 28.9189 172.292 28.4678 171.952 28.1338C171.612 27.7939 171.111 27.624 170.449 27.624C169.869 27.624 169.383 27.7705 168.99 28.0635C168.598 28.3564 168.401 28.7109 168.401 29.127H166.767C166.767 28.6523 166.934 28.1953 167.268 27.7559C167.607 27.3105 168.064 26.959 168.639 26.7012C169.219 26.4434 169.854 26.3145 170.546 26.3145C171.642 26.3145 172.5 26.5898 173.121 27.1406C173.742 27.6855 174.064 28.4385 174.088 29.3994V33.7764C174.088 34.6494 174.199 35.3438 174.422 35.8594V36H172.717ZM170.019 34.7607C170.528 34.7607 171.012 34.6289 171.469 34.3652C171.926 34.1016 172.257 33.7588 172.462 33.3369V31.3857H171.188C169.195 31.3857 168.199 31.9688 168.199 33.1348C168.199 33.6445 168.369 34.043 168.709 34.3301C169.049 34.6172 169.485 34.7607 170.019 34.7607ZM184.67 31.3506C184.67 32.7979 184.339 33.9639 183.677 34.8486C183.015 35.7334 182.118 36.1758 180.987 36.1758C179.833 36.1758 178.925 35.8096 178.263 35.0771V39.6562H176.637V26.4902H178.122L178.201 27.5449C178.863 26.7246 179.783 26.3145 180.961 26.3145C182.104 26.3145 183.006 26.7451 183.668 27.6064C184.336 28.4678 184.67 29.666 184.67 31.2012V31.3506ZM183.044 31.166C183.044 30.0938 182.815 29.2471 182.358 28.626C181.901 28.0049 181.274 27.6943 180.478 27.6943C179.493 27.6943 178.755 28.1309 178.263 29.0039V33.5479C178.749 34.415 179.493 34.8486 180.495 34.8486C181.274 34.8486 181.893 34.541 182.35 33.9258C182.812 33.3047 183.044 32.3848 183.044 31.166Z" fill="black"/>
<defs>
<filter id="filter0_d" x="0" y="0" width="56.6148" height="60" filterUnits="userSpaceOnUse" color-interpolation-filters="sRGB">
<feFlood flood-opacity="0" result="BackgroundImageFix"/>
<feColorMatrix in="SourceAlpha" type="matrix" values="0 0 0 0 0 0 0 0 0 0 0 0 0 0 0 0 0 0 127 0"/>
<feOffset/>
<feGaussianBlur stdDeviation="5"/>
<feColorMatrix type="matrix" values="0 0 0 0 0 0 0 0 0 0 0 0 0 0 0 0 0 0 0.1 0"/>
<feBlend mode="normal" in2="BackgroundImageFix" result="effect1_dropShadow"/>
<feBlend mode="normal" in="SourceGraphic" in2="effect1_dropShadow" result="shape"/>
</filter>
<clipPath id="clip0">
<rect width="36.6148" height="40" fill="white" transform="translate(10 10)"/>
</clipPath>
</defs>
</svg>
